#!OML:ASF X:\für Bonn\!DataBase\2005_08_12_Daniel\c3d\Daniel.ASF
:FULLY-SPECIFIED
:DEGREES
199
root 1.02244 15.7917 -18.2938 206.042 151.309 -163.749
lowerback 89.4303 -9.44192 12.7661
upperback 5.70615 3.418 -3.00767
thorax -11.1271 2.29344 -9.56716
lowerneck 4.91985 -9.26615 -1.56507
upperneck 5.41343 -12.1138 2.45761
head 1.13061 -5.90382 1.04374
rclavicle -2.8625e-014 -1.51076e-014
rhumerus 72.463 -20.5297 -98.9528
rradius 6.65991
rwrist 70.7065
rhand -41.8721 8.08884
rfingers 7.12502
rthumb -14.7719 -21.3647
lclavicle -2.8625e-014 -1.51076e-014
lhumerus -28.8075 -17.1625 95.3044
lradius 63.4157
lwrist 12.9895
lhand -11.8294 -11.0338
lfingers 7.12502
lthumb 14.2214 18.4593
rfemur -61.7651 -13.8796 2.09818
rtibia 74.796
rfoot -29.9249 -12.2775
rtoes -17.4839
lfemur -64.6359 -10.2178 -28.6143
ltibia 61.668
lfoot -13.2874 -24.3292
ltoes -5.55925
200
root 1.01549 15.7807 -18.2828 206.108 151.108 -163.614
lowerback 89.685 -9.54374 12.8229
upperback 5.58231 3.43244 -3.02881
thorax -11.2209 2.2932 -9.61367
lowerneck 4.86208 -9.32124 -1.53867
upperneck 5.42851 -12.1871 2.54151
head 1.15084 -5.93849 1.06159
rclavicle 0 9.78021e-014
rhumerus 72.7649 -20.1878 -98.8793
rradius 6.43331
rwrist 72.3033
rhand -40.7849 7.38878
rfingers 7.12502
rthumb -13.7243 -22.1386
lclavicle 0 9.78021e-014
lhumerus -28.909 -17.0701 95.3858
lradius 63.4903
lwrist 12.9397
lhand -11.9082 -11.1176
lfingers 7.12502
lthumb 14.1455 18.3809
rfemur -61.7424 -13.9314 2.01644
rtibia 75.0103
rfoot -30.1086 -12.3514
rtoes -17.4641
lfemur -64.6602 -10.1416 -28.7785
ltibia 61.7746
lfoot -13.2543 -24.5895
ltoes -5.48461
201
root 1.0082 15.7691 -18.2704 206.142 150.912 -163.523
lowerback 89.9531 -9.63862 12.8854
upperback 5.47264 3.45662 -3.06326
thorax -11.2921 2.3008 -9.68165
lowerneck 4.7154 -9.38263 -1.48269
upperneck 5.45178 -12.2702 2.63455
head 1.18728 -5.97757 1.07284
rclavicle -5.725e-014 3.26007e-014
rhumerus 73.075 -19.8784 -98.8278
rradius 6.1687
rwrist 73.7259
rhand -39.9497 6.6986
rfingers 7.12502
rthumb -12.9193 -22.8815
lclavicle -5.725e-014 3.26007e-014
lhumerus -28.9441 -16.9843 95.4327
lradius 63.5392
lwrist 12.9262
lhand -11.9239 -11.2982
lfingers 7.12502
lthumb 14.1304 18.2013
rfemur -61.7108 -13.9718 1.99354
rtibia 75.2105
rfoot -30.2758 -12.472
rtoes -17.5415
lfemur -64.6659 -10.0344 -28.9101
ltibia 61.8873
lfoot -13.2551 -24.8658
ltoes -5.43899
202
root 1.00104 15.7595 -18.2595 206.194 150.722 -163.427
lowerback 90.1891 -9.72334 12.9263
upperback 5.38096 3.46828 -3.08536
thorax -11.352 2.30392 -9.72248
lowerneck 4.51117 -9.42887 -1.46942
upperneck 5.5095 -12.3363 2.721
head 1.24615 -6.00851 1.08484
rclavicle 3.18055e-014 1.59028e-014
rhumerus 73.3722 -19.5305 -98.7673
rradius 5.83116
rwrist 74.8844
rhand -39.3062 6.08828
rfingers 7.12502
rthumb -12.2989 -23.53
lclavicle 3.18055e-014 1.59028e-014
lhumerus -28.9837 -16.8893 95.4925
lradius 63.6328
lwrist 12.9201
lhand -11.9917 -11.3661
lfingers 7.12502
lthumb 14.065 18.138
rfemur -61.6989 -14.011 1.96464
rtibia 75.3992
rfoot -30.4164 -12.5859
rtoes -17.5697
lfemur -64.6951 -9.94878 -29.0375
ltibia 61.993
lfoot -13.2383 -25.0938
ltoes -5.36992
203
root 0.99479 15.7495 -18.248 206.226 150.535 -163.373
lowerback 90.446 -9.80567 12.9963
upperback 5.25658 3.5071 -3.11905
thorax -11.4405 2.31255 -9.79874
lowerneck 4.34765 -9.4864 -1.42236
upperneck 5.56023 -12.4155 2.82339
head 1.29554 -6.04498 1.09854
rclavicle -4.77083e-014 1.82882e-014
rhumerus 73.6102 -19.2326 -98.6972
rradius 5.43691
rwrist 75.7964
rhand -38.9919 5.38259
rfingers 7.12502
rthumb -11.9959 -24.2537
lclavicle -4.77083e-014 1.82882e-014
lhumerus -29.0682 -16.8828 95.5649
lradius 63.737
lwrist 12.9536
lhand -12.0662 -11.4487
lfingers 7.12502
lthumb 13.9933 18.0603
rfemur -61.6888 -14.051 1.96911
rtibia 75.576
rfoot -30.5475 -12.6529
rtoes -17.4842
lfemur -64.7227 -9.83546 -29.1379
ltibia 62.0979
lfoot -13.2364 -25.3342
ltoes -5.3589
204
root 0.988248 15.7411 -18.2374 206.249 150.341 -163.324
lowerback 90.6679 -9.89382 13.0468
upperback 5.16964 3.51944 -3.14462
thorax -11.4952 2.31576 -9.84724
lowerneck 4.16641 -9.52784 -1.37481
upperneck 5.58532 -12.4747 2.90073
head 1.33749 -6.07251 1.10436
rclavicle -1.08139e-013 -5.1684e-014
rhumerus 73.8525 -18.9265 -98.6205
rradius 5.05127
rwrist 76.5165
rhand -38.7933 4.62742
rfingers 7.12502
rthumb -11.8044 -25.0199
lclavicle -1.08139e-013 -5.1684e-014
lhumerus -29.1104 -16.8092 95.627
lradius 63.8542
lwrist 12.9823
lhand -12.0888 -11.5344
lfingers 7.12502
lthumb 13.9714 17.9762
rfemur -61.6639 -14.0924 1.99205
rtibia 75.7444
rfoot -30.6709 -12.7512
rtoes -17.4649
lfemur -64.7433 -9.74248 -29.217
ltibia 62.2054
lfoot -13.2461 -25.5554
ltoes -5.37211
205
root 0.98202 15.7342 -18.2268 206.281 150.178 -163.257
lowerback 90.8705 -9.97574 13.0989
upperback 5.09391 3.53025 -3.18876
thorax -11.5389 2.32217 -9.92002
lowerneck 4.05838 -9.57722 -1.34673
upperneck 5.56555 -12.5449 3.02065
head 1.35787 -6.1063 1.13092
rclavicle 7.95139e-014 8.74653e-015
rhumerus 74.0695 -18.7433 -98.5225
rradius 4.64826
rwrist 76.9507
rhand -38.8703 3.90558
rfingers 7.12502
rthumb -11.8786 -25.7375
lclavicle 7.95139e-014 8.74653e-015
lhumerus -29.1296 -16.7944 95.6985
lradius 63.95
lwrist 12.9671
lhand -12.1294 -11.5848
lfingers 7.12502
lthumb 13.9323 17.9284
rfemur -61.637 -14.131 1.98372
rtibia 75.898
rfoot -30.7974 -12.8141
rtoes -17.5134
lfemur -64.7593 -9.65172 -29.3102
ltibia 62.3011
lfoot -13.2134 -25.7626
ltoes -5.2225
206
root 0.976902 15.7238 -18.2172 206.304 150.022 -163.222
lowerback 91.0193 -10.0433 13.1436
upperback 5.04894 3.5391 -3.21802
thorax -11.5566 2.32908 -9.971
lowerneck 3.95076 -9.61474 -1.34646
upperneck 5.53426 -12.6008 3.13206
head 1.3755 -6.13402 1.15959
rclavicle -5.725e-014 -1.11319e-014
rhumerus 74.1882 -18.6211 -98.384
rradius 4.38492
rwrist 77.1726
rhand -39.0908 3.30347
rfingers 7.12502
rthumb -12.0912 -26.3272
lclavicle -5.725e-014 -1.11319e-014
lhumerus -29.1178 -16.8212 95.7681
lradius 64.0236
lwrist 13.0302
lhand -12.1989 -11.6285
lfingers 7.12502
lthumb 13.8654 17.8893
rfemur -61.6486 -14.1528 2.00463
rtibia 76.0641
rfoot -30.8945 -12.8827
rtoes -17.4757
lfemur -64.7961 -9.54626 -29.3851
ltibia 62.4114
lfoot -13.2252 -25.9571
ltoes -5.22492
207
root 0.972084 15.7163 -18.2083 206.323 149.855 -163.183
lowerback 91.1769 -10.1077 13.1765
upperback 4.97829 3.54789 -3.22701
thorax -11.607 2.32875 -9.99307
lowerneck 3.95619 -9.64902 -1.33309
upperneck 5.46978 -12.648 3.20673
head 1.35998 -6.15813 1.18183
rclavicle -4.45278e-014 6.36111e-015
rhumerus 74.1766 -18.5819 -98.1815
rradius 4.22794
rwrist 77.2462
rhand -39.4059 2.63424
rfingers 7.12502
rthumb -12.395 -26.9783
lclavicle -4.45278e-014 6.36111e-015
lhumerus -29.1061 -16.7865 95.8777
lradius 64.0075
lwrist 13.0742
lhand -12.191 -11.7276
lfingers 7.12502
lthumb 13.873 17.7897
rfemur -61.6288 -14.1851 2.01433
rtibia 76.2107
rfoot -31.0078 -12.9486
rtoes -17.5309
lfemur -64.822 -9.4451 -29.4684
ltibia 62.5148
lfoot -13.225 -26.1777
ltoes -5.20224
208
root 0.967622 15.709 -18.2005 206.323 149.704 -163.148
lowerback 91.3232 -10.155 13.1902
upperback 4.93415 3.55448 -3.23026
thorax -11.6299 2.33159 -10.0003
lowerneck 3.91614 -9.66767 -1.34483
upperneck 5.39244 -12.6782 3.30805
head 1.35119 -6.1748 1.21423
rclavicle 5.08889e-014 -7.63333e-014
rhumerus 74.0948 -18.6198 -97.9573
rradius 4.21188
rwrist 77.1792
rhand -39.7928 1.96625
rfingers 7.12502
rthumb -12.768 -27.6233
lclavicle 5.08889e-014 -7.63333e-014
lhumerus -29.0235 -16.7358 96.0026
lradius 63.9281
lwrist 13.0401
lhand -12.226 -11.7821
lfingers 7.12502
lthumb 13.8392 17.7375
rfemur -61.6069 -14.2079 2.02231
rtibia 76.3605
rfoot -31.0895 -13.0033
rtoes -17.4562
lfemur -64.8305 -9.35026 -29.5419
ltibia 62.6178
lfoot -13.2057 -26.3416
ltoes -5.08034
209
root 0.963563 15.701 -18.1929 206.326 149.587 -163.11
lowerback 91.4372 -10.1626 13.1841
upperback 4.90464 3.57352 -3.22656
thorax -11.6428 2.33963 -9.99848
lowerneck 3.91561 -9.70344 -1.32476
upperneck 5.30647 -12.7273 3.37157
head 1.32867 -6.20054 1.2323
rclavicle -2.22639e-014 4.92986e-014
rhumerus 73.9284 -18.7538 -97.696
rradius 4.29362
rwrist 77.1238
rhand -40.2562 1.3025
rfingers 7.12502
rthumb -13.2148 -28.2587
lclavicle -2.22639e-014 4.92986e-014
lhumerus -28.9298 -16.726 96.1296
lradius 63.8298
lwrist 12.987
lhand -12.2447 -11.8733
lfingers 7.12502
lthumb 13.8212 17.6475
rfemur -61.5944 -14.2294 2.02021
rtibia 76.4972
rfoot -31.1729 -13.0467
rtoes -17.4333
lfemur -64.8444 -9.2582 -29.6219
ltibia 62.7152
lfoot -13.2266 -26.4798
ltoes -5.19163
210
root 0.960197 15.6942 -18.185 206.321 149.474 -163.097
lowerback 91.5288 -10.1653 13.1703
upperback 4.8892 3.58289 -3.22763
thorax -11.6449 2.34586 -9.99691
lowerneck 3.91337 -9.71665 -1.31148
upperneck 5.2152 -12.7485 3.4721
head 1.3072 -6.21275 1.26305
rclavicle -6.67916e-014 2.3059e-014
rhumerus 73.7413 -18.8996 -97.442
rradius 4.39902
rwrist 77.0479
rhand -40.7482 0.600454
rfingers 7.12502
rthumb -13.6889 -28.9293
lclavicle -6.67916e-014 2.3059e-014
lhumerus -28.8685 -16.7175 96.2294
lradius 63.8045
lwrist 12.8948
lhand -12.1925 -11.8238
lfingers 7.12502
lthumb 13.8714 17.6936
rfemur -61.5848 -14.2327 2.04588
rtibia 76.6198
rfoot -31.2541 -13.124
rtoes -17.514
lfemur -64.8517 -9.19349 -29.6596
ltibia 62.7996
lfoot -13.2313 -26.5962
ltoes -5.10017
211
root 0.95621 15.69 -18.1796 206.315 149.366 -163.078
lowerback 91.5941 -10.158 13.1614
upperback 4.88022 3.60223 -3.22159
thorax -11.6423 2.3554 -9.99234
lowerneck 3.96392 -9.75069 -1.27016
upperneck 5.06526 -12.7942 3.54343
head 1.25498 -6.23832 1.28473
rclavicle 0 5.08889e-014
rhumerus 73.5054 -19.0973 -97.1605
rradius 4.52455
rwrist 77.0228
rhand -41.2314 -0.0804642
rfingers 7.12502
rthumb -14.1546 -29.5783
lclavicle 0 5.08889e-014
lhumerus -28.8377 -16.7657 96.3528
lradius 63.8052
lwrist 12.8371
lhand -12.1487 -11.7907
lfingers 7.12502
lthumb 13.9137 17.7238
rfemur -61.5748 -14.2352 2.05306
rtibia 76.7259
rfoot -31.3129 -13.1821
rtoes -17.5783
lfemur -64.8494 -9.14074 -29.6944
ltibia 62.8704
lfoot -13.2606 -26.6765
ltoes -5.14409
